<?xml version="1.0" encoding="UTF-8"?>
<svg version="1.1" xmlns="http://www.w3.org/2000/svg" width="976" height="323">
<path d="M0 0 C3.22886009 -0.11667875 6.45717445 -0.18740546 9.6875 -0.25 C11.05551758 -0.30027344 11.05551758 -0.30027344 12.45117188 -0.3515625 C16.65502526 -0.41270946 19.24716601 -0.44426251 22.92578125 1.7265625 C35.18748602 15.16594512 43 33.76579531 43 52 C194.14 52 345.28 52 501 52 C501 48.04 501 44.08 501 40 C501.13176455 37.58117928 501.29014781 35.16330015 501.5 32.75 C501.5928125 31.65171875 501.685625 30.5534375 501.78125 29.421875 C501.8534375 28.62265625 501.925625 27.8234375 502 27 C508.61729946 27.94187839 513.58934784 31.03025108 518 36 C518.54745871 38.81221278 518.81272428 41.00142122 518.828125 43.8046875 C518.85213379 44.49812256 518.87614258 45.19155762 518.90087891 45.90600586 C518.95643584 47.60341638 518.98133535 49.30178309 519 51 C519.94698792 51.00423194 520.89397585 51.00846388 521.86966038 51.01282406 C544.9132449 51.11602325 567.95679813 51.22477248 591.00032902 51.33933926 C602.14400761 51.39461444 613.2876894 51.44808704 624.43139648 51.49731445 C634.14437849 51.54022621 643.85733747 51.58652177 653.57028383 51.63687855 C658.71306307 51.66342318 663.85583792 51.68827476 668.99864388 51.70907402 C673.8404499 51.7287094 678.68221232 51.75287355 683.52397919 51.78049088 C685.29968153 51.78982484 687.07539341 51.79751311 688.85111046 51.80341911 C691.27908878 51.8117427 693.70696302 51.82603626 696.13490295 51.84178162 C697.18405627 51.84324878 697.18405627 51.84324878 698.2544046 51.84474558 C702.60523684 51.88092364 706.71785921 52.30238536 711 53 C711.80917656 57.58533383 711.93391785 60.33041073 711 65 C685.755 65.495 685.755 65.495 660 66 C659.67 68.64 659.34 71.28 659 74 C659.680625 73.690625 660.36125 73.38125 661.0625 73.0625 C671.30079657 69.35928635 684.10285753 69.46469274 694 74 C694.9075 74.391875 695.815 74.78375 696.75 75.1875 C702.78748783 80.05103186 704.84858709 86.59465961 706 94 C706.10143311 94.64904297 706.20286621 95.29808594 706.30737305 95.96679688 C707.43956763 104.991206 706.86558365 114.06184898 706.5625 123.125 C706.50917225 124.86196105 706.45643294 126.59894027 706.40429688 128.3359375 C706.27631757 132.55753184 706.14036715 136.77880014 706 141 C701.86910179 140.37379419 698.65178277 139.46039344 694.875 137.6875 C689.00499095 135.46641549 685.76293795 136.63708399 680.09375 138.89453125 C670.19100805 142.43301101 656.89206949 142.12281359 647.29296875 137.7734375 C641.04429263 133.89780754 637.53150079 129.24678168 634.4375 122.6875 C633.65308827 116.07602967 636.62030121 110.42178243 640.625 105.25 C644.40979667 101.18733218 649.09069568 98.50871939 654 96 C654.99773438 95.4534375 655.99546875 94.906875 657.0234375 94.34375 C662.32690116 92.1214557 668.04234876 92.64564134 673.6875 92.75 C675.37842773 92.75773437 675.37842773 92.75773437 677.10351562 92.765625 C686.11274853 92.85137618 686.11274853 92.85137618 690 94 C689.67 92.68 689.34 91.36 689 90 C687.68 89.67 686.36 89.34 685 89 C685 88.34 685 87.68 685 87 C672.58663161 86.67803944 662.71693594 88.27839166 650.98046875 92.1953125 C648.15637264 92.95778144 645.90451705 93.16106379 643 93 C642.75 85.5 642.75 85.5 645 81 C645 75.72 645 70.44 645 65 C603.42 65 561.84 65 519 65 C513.89549697 99.8482948 513.89549697 99.8482948 521 131 C523.95746492 131.58345476 523.95746492 131.58345476 527 131 C532.67457501 125.73075178 532.51278633 117.20563372 533 110 C539.62842427 110.28819236 544.78452788 112.92868996 550 117 C551.48046875 118.859375 551.48046875 118.859375 552 121 C548.3611254 129.47807241 542.50150401 135.83262136 533.99316406 139.38037109 C530.47514567 140.47404217 527.02903732 140.3931987 523.375 140.3125 C522.63765625 140.31572266 521.9003125 140.31894531 521.140625 140.32226562 C516.99914633 140.2814446 513.7226738 139.84662277 510 138 C510 137.34 510 136.68 510 136 C509.4225 135.79375 508.845 135.5875 508.25 135.375 C505.06152021 133.42648457 503.34805525 131.44087479 502 128 C501.37772158 123.2209997 501.39282129 118.44465493 501.390625 113.6328125 C501.37499512 112.40038818 501.35936523 111.16796387 501.34326172 109.89819336 C501.29077529 105.30732368 501.27241465 100.71611499 501.25 96.125 C501.12625 80.718125 501.12625 80.718125 501 65 C478.56 65 456.12 65 433 65 C433.10687071 72.43641073 433.10687071 72.43641073 435.671875 74.69921875 C436.35765625 75.02535156 437.0434375 75.35148437 437.75 75.6875 C444.46334797 79.30791265 448.26769722 83.92815751 451 91 C453.67161854 101.82616665 452.02343717 113.13253413 447 123 C445.15671319 125.79705184 443.28746627 128.54686765 441 131 C440.34 131 439.68 131 439 131 C439 131.66 439 132.32 439 133 C436.62109375 134.9453125 436.62109375 134.9453125 433.4375 137.125 C431.88869141 138.21167969 431.88869141 138.21167969 430.30859375 139.3203125 C426.49061354 141.25860233 424.2277357 141.46371897 420 141 C416.51016819 139.81825801 414.7494448 137.81364199 412.4375 135 C410.32643684 132.44227537 408.80029749 130.866865 406 129 C406 127.68 406 126.36 406 125 C406.73863281 124.85304688 407.47726562 124.70609375 408.23828125 124.5546875 C420.95256754 121.74365089 432.81619751 115.77237097 440.51171875 104.85546875 C442.66433797 100.90522366 443.70680015 97.54371526 443 93 C441.65678154 89.88938883 440.80340561 88.400308 437.75 86.87890625 C431.03617704 84.73315317 423.24173165 85.14659951 416.8046875 88.03125 C409.46390046 91.97175906 404.76303795 96.57587875 402.1328125 104.66796875 C401.64719129 106.40268781 401.19116999 108.14613109 400.7734375 109.8984375 C400 112 400 112 397 114 C395.11474609 113.72387695 395.11474609 113.72387695 393.0234375 112.98828125 C391.89421875 112.59286133 391.89421875 112.59286133 390.7421875 112.18945312 C389.96101563 111.90005859 389.17984375 111.61066406 388.375 111.3125 C387.58609375 111.04244141 386.7971875 110.77238281 385.984375 110.49414062 C381.63777134 108.92951268 381.63777134 108.92951268 380 108 C378.04820965 102.14462895 381.53480704 95.68985983 384.1875 90.375 C384.785625 89.26125 385.38375 88.1475 386 87 C377.30447622 86.38667936 370.10776651 86.49597142 363 92 C358.85540684 96.37296871 355.86948455 101.45580409 355.6796875 107.58203125 C357.16561291 118.79895596 365.38882956 125.90401221 373.25732422 133.21289062 C373.9948291 133.90576172 374.73233398 134.59863281 375.4921875 135.3125 C376.16620605 135.92738281 376.84022461 136.54226562 377.53466797 137.17578125 C379 139 379 139 379 143 C368.49961486 141.6451116 358.60313036 134.73542024 350 129 C350 128.34 350 127.68 350 127 C349.34 127 348.68 127 348 127 C348 126.34 348 125.68 348 125 C347.01 124.67 346.02 124.34 345 124 C345 123.34 345 122.68 345 122 C344.01 121.67 343.02 121.34 342 121 C340.8671875 119.2578125 340.8671875 119.2578125 339.875 117.125 C339.37613281 116.07699219 339.37613281 116.07699219 338.8671875 115.0078125 C335.74876759 107.78768712 335.8811131 98.06523122 337.578125 90.3828125 C341.26489626 82.037303 349.73158267 76.72252142 357.640625 72.91015625 C366.57415789 69.4639424 375.85507965 69.78608456 384.52880859 73.60986328 C385.26180176 73.9448584 385.99479492 74.27985352 386.75 74.625 C394.2016176 78.08338418 394.2016176 78.08338418 402.140625 76.890625 C402.75421875 76.59671875 403.3678125 76.3028125 404 76 C404.98226562 75.59007812 404.98226562 75.59007812 405.984375 75.171875 C407.66323161 74.46425775 409.33239707 73.73374529 411 73 C411.99 73 412.98 73 414 73 C414 70.36 414 67.72 414 65 C312.03 65.495 312.03 65.495 208 66 C208 68.31 208 70.62 208 73 C208.72703125 72.855625 209.4540625 72.71125 210.203125 72.5625 C222.40098953 70.31058655 232.53296531 69.86056082 243.8125 75.375 C248.96114328 79.19970644 251.41324639 83.77640565 252.54467773 89.99243164 C253.21014614 94.89893509 253.12395315 99.80358464 253.09765625 104.74609375 C253.09553383 106.2627639 253.09553383 106.2627639 253.09336853 107.81007385 C253.08779961 111.01924681 253.07525287 114.22834836 253.0625 117.4375 C253.05748098 119.62174378 253.05291878 121.80598866 253.04882812 123.99023438 C253.03784037 129.32684702 253.02113336 134.6634184 253 140 C249.26023303 141.24658899 248.11008373 140.53215629 244.5 139.125 C243.5409375 138.75632813 242.581875 138.38765625 241.59375 138.0078125 C240.7378125 137.67523438 239.881875 137.34265625 239 137 C235.25915695 135.75305232 234.23807624 136.47045294 230.625 137.875 C219.14954387 141.84727328 206.06028411 142.45360112 194.55078125 138.06640625 C189.18855524 135.1146285 185.36726763 130.62768019 183 125 C182.16579018 120.02921255 182.49294813 115.6901729 183.9375 110.875 C190.66290367 101.50019489 198.155631 96.61478967 209 93 C210.81060942 92.90614016 212.62446064 92.86929429 214.4375 92.8671875 C216.02691406 92.86525391 216.02691406 92.86525391 217.6484375 92.86328125 C218.75445312 92.86714844 219.86046875 92.87101562 221 92.875 C222.65902344 92.86919922 222.65902344 92.86919922 224.3515625 92.86328125 C225.41117187 92.86457031 226.47078125 92.86585938 227.5625 92.8671875 C228.53316406 92.86831543 229.50382812 92.86944336 230.50390625 92.87060547 C233 93 233 93 236 94 C236.04289755 92.06890419 236.04289755 92.06890419 235 90 C226.82546459 85.13006401 218.76436689 86.60194381 209.875 88.8125 C204.43934339 90.21971005 199.22404449 91.9513551 194 94 C193.01 94 192.02 94 191 94 C189 91 189 91 189.1875 88.5625 C190 86 190 86 193 82 C193 76.39 193 70.78 193 65 C172.54 65 152.08 65 131 65 C131.33 67.64 131.66 70.28 132 73 C132.96486328 72.7834375 132.96486328 72.7834375 133.94921875 72.5625 C146.05494381 70.07573194 157.7468542 69.34673854 168.5625 76.0625 C169.7690625 77.0215625 169.7690625 77.0215625 171 78 C171 78.66 171 79.32 171 80 C171.66 80 172.32 80 173 80 C175.18729993 85.69523378 176.39400832 90.93612844 176.7890625 97.03125 C176.79176274 99.00101356 176.79176274 99.00101356 178 100 C178.11343718 102.43918544 178.16417936 104.84893725 178.16796875 107.2890625 C178.17129715 108.02571136 178.17462555 108.76236023 178.17805481 109.52133179 C178.18313008 111.08664321 178.18546295 112.65196551 178.18530273 114.21728516 C178.18747195 116.59426234 178.20557247 118.97076236 178.22460938 121.34765625 C178.22754677 122.86979009 178.22952925 124.39192612 178.23046875 125.9140625 C178.23765427 126.61850494 178.24483978 127.32294739 178.25224304 128.04873657 C178.23080885 132.76488981 177.45857433 136.56827526 176 141 C174.22739369 140.54857225 172.4569632 140.08859477 170.6875 139.625 C169.70136719 139.36976563 168.71523438 139.11453125 167.69921875 138.8515625 C165 138 165 138 162 136 C159.55468965 136.21576268 157.42399215 136.83945067 155.1328125 137.70703125 C143.84811418 141.90262422 132.67560403 141.37745912 121 139 C120.34 138.67 119.68 138.34 119 138 C119 137.34 119 136.68 119 136 C117.35 135.67 115.7 135.34 114 135 C114 134.34 114 133.68 114 133 C113.34 133 112.68 133 112 133 C108.2682839 129.05342752 106.62547412 124.89109765 106.4375 119.5 C106.8101108 112.91115054 108.41295118 108.61633616 113.0703125 103.90625 C125.56979987 93.13498757 137.60035055 92.02357008 153.54199219 92.75439453 C156.56042921 93.05599839 159.20881176 93.82202395 162 95 C160.42664141 91.5756313 159.2167179 90.12826162 155.9375 88.1875 C145.96804153 84.58856686 135.75187038 88.29868503 126 91 C124.85402344 91.30808594 123.70804688 91.61617188 122.52734375 91.93359375 C120.01490341 92.61114218 117.50602271 93.29916314 115 94 C113.12735324 92.12735324 113.76392622 89.50240053 113.671875 87.0078125 C114 85 114 85 117 82 C116.67 76.39 116.34 70.78 116 65 C92.24 65 68.48 65 44 65 C44 69.95 44 74.9 44 80 C44.99257812 79.4225 45.98515625 78.845 47.0078125 78.25 C55.92363534 73.28141289 63.56428409 69.84454175 74 72 C82.56556073 74.97045843 89.57600162 78.77136301 94 87 C94.46921875 87.84304687 94.9384375 88.68609375 95.421875 89.5546875 C100.36772099 98.91845209 101.56302121 108.9152315 99.25 119.375 C97.88331884 123.33837535 96.20436851 126.44456692 94 130 C93.67 130.66 93.34 131.32 93 132 C92.34 132 91.68 132 91 132 C90.79375 132.556875 90.5875 133.11375 90.375 133.6875 C88.40264067 137.00464978 86.19208883 138.85147867 83 141 C77.24599848 141.26154552 71.95537773 137.65396712 67 135 C67.52446841 131.05627004 68.45198631 129.05586425 71.1875 126.1875 C79.13011215 117.47835239 84.77295426 109.77391729 84.3515625 97.49609375 C83.59913899 92.1538868 81.6982044 87.6982044 77.875 83.875 C71.64731362 81.97961719 65.86003558 83.25747706 60.1875 86.25 C56.57336933 88.44018873 53.88494206 90.94021297 51 94 C50.34 94 49.68 94 49 94 C48.5978125 94.804375 48.5978125 94.804375 48.1875 95.625 C47.32867126 97.34265748 46.40273205 99.02730088 45.4375 100.6875 C41.97016201 108.67745276 42.71583108 118.47986443 42.4375 127.0625 C42.37272461 128.93325195 42.37272461 128.93325195 42.30664062 130.84179688 C42.20137704 133.89444091 42.09924059 136.94715523 42 140 C39 141 39 141 35.6796875 139.63671875 C34.40621225 138.99732252 33.13811495 138.34712669 31.875 137.6875 C31.22917969 137.36587891 30.58335937 137.04425781 29.91796875 136.71289062 C25.13585283 134.27170567 25.13585283 134.27170567 24 132 C23.90824966 129.87583 23.88249306 127.74870545 23.88647461 125.62255859 C23.88632858 124.96877731 23.88618256 124.31499603 23.8860321 123.6414032 C23.88672964 121.47704773 23.8945146 119.31277796 23.90234375 117.1484375 C23.90420849 115.64913988 23.90563213 114.14984166 23.90663147 112.65054321 C23.91045221 108.70168378 23.92027872 104.75286104 23.93133545 100.80401611 C23.94335615 96.06750242 23.94795392 91.33097648 23.95378876 86.5944519 C23.96349071 79.39627574 23.98265034 72.19818011 24 65 C5.19 65 -13.62 65 -33 65 C-32.67 67.64 -32.34 70.28 -32 73 C-30.89205078 72.7834375 -30.89205078 72.7834375 -29.76171875 72.5625 C-17.43228895 70.30654334 -6.98363913 69.86033527 4.375 75.75 C8.92108833 79.64664714 11.06626228 84.07326712 12 90 C12.11291411 91.67579787 12.18466831 93.3547351 12.22119141 95.03393555 C12.24436432 96.00811935 12.26753723 96.98230316 12.29141235 97.98600769 C12.3112619 99.02574234 12.33111145 100.06547699 12.3515625 101.13671875 C12.38629166 102.75040092 12.38629166 102.75040092 12.42172241 104.39668274 C12.46925373 106.665207 12.51450052 108.93378012 12.55761719 111.20239258 C12.62495648 114.68524917 12.70265222 118.16777198 12.78125 121.65039062 C12.82614491 123.85415404 12.87043663 126.05792985 12.9140625 128.26171875 C12.93796051 129.30752609 12.96185852 130.35333344 12.98648071 131.43083191 C13.0033493 132.39555923 13.0202179 133.36028656 13.03759766 134.35424805 C13.05456696 135.20520554 13.07153625 136.05616302 13.08901978 136.9329071 C13 139 13 139 12 141 C3.72240803 139.43645485 3.72240803 139.43645485 0 137.1875 C-3.97044667 135.61586486 -5.91154355 136.57902305 -9.75390625 138.140625 C-15.63522868 140.3908701 -21.60557236 140.21705015 -27.8125 140.25 C-29.25206055 140.2809375 -29.25206055 140.2809375 -30.72070312 140.3125 C-39.80199076 140.36209065 -46.40045352 138.43455781 -53 132 C-53 131.34 -53 130.68 -53 130 C-53.66 130 -54.32 130 -55 130 C-57.67425608 124.06315151 -58.02137222 118.12926198 -56.453125 111.7890625 C-53.02097269 103.59722726 -43.87697755 97.52286423 -36 94 C-33.28591973 93.28044212 -30.60482381 92.94668689 -27.8125 92.6875 C-27.07290039 92.61047852 -26.33330078 92.53345703 -25.57128906 92.45410156 C-17.42428763 91.7025592 -9.59078654 91.66879152 -2 95 C-2.33 93.68 -2.66 92.36 -3 91 C-3.66 91 -4.32 91 -5 91 C-5 90.34 -5 89.68 -5 89 C-17.61510882 84.51462797 -30.05623455 87.95171071 -42.30078125 92.125 C-45.03716178 93.01204666 -47.14530671 93.16792313 -50 93 C-50.2519685 85.44094488 -50.2519685 85.44094488 -49 83.25 C-47.48434815 79.83978334 -47.7909562 76.40913764 -47.875 72.75 C-47.88402344 72.00492187 -47.89304687 71.25984375 -47.90234375 70.4921875 C-47.92581642 68.66131941 -47.96168475 66.83061762 -48 65 C-52.95 65 -57.9 65 -63 65 C-64.125 56.375 -64.125 56.375 -63 53 C-57.58319313 52.23496366 -52.31427377 51.85875126 -46.83984375 51.88647461 C-46.06814346 51.88632858 -45.29644318 51.88618256 -44.50135803 51.8860321 C-41.98004226 51.88672232 -39.45880268 51.89447249 -36.9375 51.90234375 C-35.17773479 51.9042111 -33.41796905 51.90563351 -31.65820312 51.90663147 C-27.04854879 51.91043168 -22.43892645 51.9202404 -17.82928467 51.93133545 C-13.11666293 51.94160348 -8.40403597 51.9461406 -3.69140625 51.95117188 C5.53907648 51.96186512 14.76953557 51.97891125 24 52 C23.85031298 50.06864633 23.69744178 48.13753925 23.54321289 46.20654297 C23.45842178 45.13113251 23.37363068 44.05572205 23.28627014 42.94772339 C22.34413136 33.24652126 17.63859389 25.11638702 12.70703125 16.93359375 C11 14 11 14 10 11 C9.34 11 8.68 11 8 11 C6.5625 9.50390625 6.5625 9.50390625 5 7.5625 C2.85474956 4.84811762 2.85474956 4.84811762 0 3 C0 2.01 0 1.02 0 0 Z M-41.49609375 112.4765625 C-44.34801384 115.36552052 -47.19501744 118.3390878 -49 122 C-48.96374269 124.14007781 -48.96374269 124.14007781 -48 126 C-42.27806792 129.81462138 -33.58254498 128.54656776 -26.953125 127.53515625 C-17.91982625 125.32904716 -9.09939638 121.15101644 -3 114 C-3.71147517 110.86749954 -3.71147517 110.86749954 -6.25 109.4375 C-17.25029562 104.52806019 -31.88996923 104.53164749 -41.49609375 112.4765625 Z M119.1484375 116.8046875 C116.83398121 119.22735703 116.83398121 119.22735703 115 122 C114.96573986 124.12342577 114.96573986 124.12342577 116 126 C120.92669655 129.66881658 128.2213809 128.39385689 134 128 C144.5426099 126.24973532 153.89336323 122.04172055 161 114 C160.03497224 111.53663966 159.48881471 110.26266184 157.1171875 108.98828125 C142.42709542 104.56077963 130.43840192 105.80054497 119.1484375 116.8046875 Z M199 113 C196.03697026 116.14100393 193.46301544 119.45683533 191 123 C191.79117904 124.99983534 191.79117904 124.99983534 193 127 C202.99948654 130.33316218 214.49648296 127.82580324 224 124 C228.69985331 121.46670572 233.21022011 118.78977989 237 115 C237.22292585 112.96323357 237.22292585 112.96323357 236 111 C223.85620683 104.28215697 210.38382548 104.92413679 199 113 Z M650 114 C647.47658286 116.87630881 645.18757595 119.86219575 643 123 C644.4322083 125.64060954 644.4322083 125.64060954 647 128 C650.07995082 128.49144904 652.49859016 128.66795609 655.5625 128.5625 C656.36880859 128.54590332 657.17511719 128.52930664 658.00585938 128.51220703 C670.14505427 128.04250683 681.61008194 122.86770383 690 114 C689.57588562 111.98178629 689.57588562 111.98178629 688 110 C685.25693711 109.05149159 682.75415179 108.34710081 679.9375 107.75 C679.19177734 107.57726562 678.44605469 107.40453125 677.67773438 107.2265625 C668.21739631 105.06125352 657.36861898 107.38754934 650 114 Z " fill="#FE8627" transform="translate(160,67)"/>
<path d="M0 0 C4.96719558 3.10902935 9.99905183 6.71561519 12.140625 12.33984375 C12.92369194 17.72239863 13.05096654 22.76532308 9.953125 27.40234375 C7.70270285 30.08999077 5.58916287 31.45307687 2.140625 32.33984375 C2.140625 32.99984375 2.140625 33.65984375 2.140625 34.33984375 C-0.27065554 35.47850401 -2.16595936 36.36151299 -4.859375 36.27734375 C-7.82068969 34.88922749 -9.64998743 32.71918421 -11.859375 30.33984375 C-12.4575 29.78296875 -13.055625 29.22609375 -13.671875 28.65234375 C-14.859375 27.33984375 -14.859375 27.33984375 -14.859375 25.33984375 C-15.849375 25.00984375 -16.839375 24.67984375 -17.859375 24.33984375 C-16.86775131 21.77548357 -16.29763899 20.57589714 -13.8359375 19.25 C-13.05992187 18.97027344 -12.28390625 18.69054687 -11.484375 18.40234375 C-7.42223053 16.74352591 -5.21447045 15.16687386 -2.859375 11.33984375 C-2.529375 10.34984375 -2.199375 9.35984375 -1.859375 8.33984375 C-2.519375 8.33984375 -3.179375 8.33984375 -3.859375 8.33984375 C-3.859375 7.67984375 -3.859375 7.01984375 -3.859375 6.33984375 C-11.70401059 5.68612412 -16.85876341 7.04565986 -22.9609375 12.0703125 C-30.28982037 18.94628688 -34.52928662 26.11447896 -35.06469727 36.2121582 C-35.10614193 37.70903137 -35.14293144 39.20603855 -35.17578125 40.703125 C-35.19656235 41.49510788 -35.21734344 42.28709076 -35.23875427 43.10307312 C-35.30385304 45.61941303 -35.36294923 48.13585247 -35.421875 50.65234375 C-35.465098 52.36394236 -35.50871348 54.0755311 -35.55273438 55.78710938 C-35.65949347 59.97125359 -35.76087135 64.15549737 -35.859375 68.33984375 C-38.859375 69.33984375 -38.859375 69.33984375 -42.1796875 67.94140625 C-43.45314446 67.29271419 -44.72123992 66.63341222 -45.984375 65.96484375 C-46.63019531 65.63484375 -47.27601563 65.30484375 -47.94140625 64.96484375 C-52.67623782 62.52298093 -52.67623782 62.52298093 -53.859375 61.33984375 C-53.96883678 59.54566487 -54.00846461 57.74718156 -54.02050781 55.94970703 C-54.03011536 54.79826202 -54.0397229 53.64681702 -54.04962158 52.46047974 C-54.05387146 51.20637299 -54.05812134 49.95226624 -54.0625 48.66015625 C-54.06820007 47.38131561 -54.07390015 46.10247498 -54.07977295 44.78488159 C-54.09029159 42.07289226 -54.09612841 39.36093265 -54.09960938 36.64892578 C-54.10509247 33.17284838 -54.12911224 29.69716304 -54.15758133 26.22120857 C-54.1806819 22.90919823 -54.1826559 19.59724304 -54.1875 16.28515625 C-54.1998468 15.03509796 -54.2121936 13.78503967 -54.22491455 12.49710083 C-54.22191345 11.3393515 -54.21891235 10.18160217 -54.21582031 8.98876953 C-54.21946594 7.9680838 -54.22311157 6.94739807 -54.22686768 5.89578247 C-53.859375 3.33984375 -53.859375 3.33984375 -52.4586792 1.50949097 C-50.41463436 0.01458377 -49.25084456 -0.03128368 -46.734375 0.02734375 C-45.93 0.04539063 -45.125625 0.0634375 -44.296875 0.08203125 C-41.92198167 0.33322189 -39.99346464 0.90787103 -37.734375 1.65234375 C-33.19018714 2.82016825 -29.7458629 1.54613049 -25.484375 -0.03515625 C-16.48484091 -3.36126579 -8.79875889 -4.44685476 0 0 Z " fill="#FE8727" transform="translate(479.859375,140.66015625)"/>
<path d="M0 0 C4.78149135 2.77870302 8.34261028 6.68912681 10.81640625 11.63671875 C11.66635414 17.32814193 11.28801912 21.62724424 8.12890625 26.51171875 C4.73709793 30.99714751 1.83852115 33.87365652 -3.49609375 35.88671875 C-8.49500079 35.5478098 -10.10409974 33.4036852 -13.38671875 29.8125 C-13.9796875 29.09449219 -14.57265625 28.37648437 -15.18359375 27.63671875 C-15.7765625 26.97027344 -16.36953125 26.30382812 -16.98046875 25.6171875 C-18.18359375 23.63671875 -18.18359375 23.63671875 -18.10546875 21.47265625 C-17.18359375 19.63671875 -17.18359375 19.63671875 -13.43359375 18.26171875 C-12.71816406 18.02582031 -12.00273438 17.78992188 -11.265625 17.546875 C-7.70848514 15.99187765 -6.24604761 13.89672647 -4.18359375 10.63671875 C-4.496415 8.48181973 -4.496415 8.48181973 -5.18359375 6.63671875 C-11.16223841 5.36348887 -15.06214596 5.45863643 -20.45703125 8.43359375 C-22.25210618 9.60420852 -22.25210618 9.60420852 -23.78515625 11.27734375 C-25.18359375 12.63671875 -25.18359375 12.63671875 -27.18359375 12.63671875 C-27.51359375 13.95671875 -27.84359375 15.27671875 -28.18359375 16.63671875 C-28.84359375 16.63671875 -29.50359375 16.63671875 -30.18359375 16.63671875 C-30.85921123 18.29977715 -31.52292656 19.9676648 -32.18359375 21.63671875 C-32.94700073 23.42819336 -32.94700073 23.42819336 -33.72583008 25.25585938 C-35.41292014 29.78262961 -35.65652261 33.93531682 -35.6953125 38.73046875 C-35.7132637 39.56259888 -35.7312149 40.394729 -35.74971008 41.2520752 C-35.80340002 43.88023989 -35.83757446 46.5082274 -35.87109375 49.13671875 C-35.90430344 50.93101403 -35.93879642 52.72528604 -35.97460938 54.51953125 C-36.05910199 58.89179831 -36.12610834 63.26401661 -36.18359375 67.63671875 C-39.80421672 68.84359307 -40.62822683 68.32559606 -44.05859375 66.88671875 C-44.90164063 66.54125 -45.7446875 66.19578125 -46.61328125 65.83984375 C-47.46148438 65.4428125 -48.3096875 65.04578125 -49.18359375 64.63671875 C-50.04767853 64.2349794 -50.91176331 63.83324005 -51.80203247 63.41932678 C-54.18359375 61.63671875 -54.18359375 61.63671875 -54.82955933 59.04954529 C-54.83923737 58.01411087 -54.84891541 56.97867645 -54.85888672 55.91186523 C-54.88175751 54.73732285 -54.9046283 53.56278046 -54.92819214 52.35264587 C-54.92739655 51.08385086 -54.92660095 49.81505585 -54.92578125 48.5078125 C-54.94327423 47.20723404 -54.96076721 45.90665558 -54.97879028 44.56666565 C-55.01505678 41.81525835 -55.03544038 39.06437839 -55.04296875 36.31274414 C-55.05264404 32.78258854 -55.088081 29.25333732 -55.13363457 25.72347927 C-55.20780244 19.89331655 -55.2649679 14.06277164 -55.28466797 8.23217773 C-55.28957245 7.19753891 -55.29447693 6.16290009 -55.29953003 5.09690857 C-55.18359375 2.63671875 -55.18359375 2.63671875 -54.18359375 0.63671875 C-47.18963758 -0.93112717 -39.97108101 -0.625777 -33.18359375 1.63671875 C-30.75662092 0.89465871 -28.42938429 0.08946765 -26.05859375 -0.80078125 C-15.9717056 -4.31563593 -9.8610317 -4.39527467 0 0 Z " fill="#FE8626" transform="translate(777.18359375,141.36328125)"/>
<path d="M0 0 C1.73056641 -0.04253906 1.73056641 -0.04253906 3.49609375 -0.0859375 C6.5625 0.375 6.5625 0.375 8.53515625 2.1484375 C9.80655586 4.90394235 9.29873639 5.50341137 8.5625 8.375 C8.44810328 10.45207988 8.38629807 12.53228078 8.35717773 14.61230469 C8.33723251 15.87330994 8.31728729 17.13431519 8.29673767 18.43353271 C8.27975599 19.80464557 8.26287709 21.1757597 8.24609375 22.546875 C8.22551165 23.95363967 8.20451485 25.36039833 8.18312073 26.76715088 C8.12802965 30.46273927 8.07856345 34.15838226 8.03027344 37.85406494 C7.97996351 41.62801959 7.92432707 45.40189532 7.86914062 49.17578125 C7.76171772 56.57545392 7.66023781 63.9751924 7.5625 71.375 C6.10182801 70.92417531 4.64401968 70.46406463 3.1875 70 C2.37539063 69.74476563 1.56328125 69.48953125 0.7265625 69.2265625 C-1.4375 68.375 -1.4375 68.375 -3.4375 66.375 C-4.118125 66.21 -4.79875 66.045 -5.5 65.875 C-6.139375 65.71 -6.77875 65.545 -7.4375 65.375 C-8.78281059 62.68437882 -8.57206332 60.59268669 -8.58276367 57.58007812 C-8.58914352 56.3654187 -8.59552338 55.15075928 -8.60209656 53.89929199 C-8.60320938 52.58158813 -8.6043222 51.26388428 -8.60546875 49.90625 C-8.60868076 48.54626429 -8.61204478 47.18627892 -8.61555481 45.82629395 C-8.621546 42.97484536 -8.62339467 40.12342709 -8.62280273 37.27197266 C-8.622701 33.61319379 -8.63636501 29.95460849 -8.65357494 26.29587555 C-8.66467657 23.48723451 -8.66672253 20.67864059 -8.66619301 17.86997986 C-8.66795141 15.86354132 -8.67880197 13.85711748 -8.68974304 11.85070801 C-8.68666641 10.63604858 -8.68358978 9.42138916 -8.68041992 8.16992188 C-8.68184494 7.09673706 -8.68326996 6.02355225 -8.68473816 4.91784668 C-8.15798016 -0.49986404 -4.59077936 0.05117926 0 0 Z " fill="#FE8A26" transform="translate(630.4375,137.625)"/>
<path d="M0 0 C2.31 0 4.62 0 7 0 C7 0.33 7 0.66 7 1 C135.37 1 263.74 1 396 1 C396 0.67 396 0.34 396 0 C414.48 0 432.96 0 452 0 C452 0.66 452 1.32 452 2 C453.98 2 455.96 2 458 2 C458 2.33 458 2.66 458 3 C377.81 3 297.62 3 215 3 C215 5.64 215 8.28 215 11 C215.99 11.33 216.98 11.66 218 12 C215.36 12 212.72 12 210 12 C210.66 11.67 211.32 11.34 212 11 C212 8.36 212 5.72 212 3 C141.05 3 70.1 3 -3 3 C-2.01 2.67 -1.02 2.34 0 2 C0 1.34 0 0.68 0 0 Z " fill="#FC923E" transform="translate(204,119)"/>
<path d="M0 0 C5.28774972 2.1542684 9.49414457 4.89243671 12.05859375 10.18457031 C13.05660908 12.74756293 13.95075427 15.32563049 14.8125 17.9375 C15.12380859 18.81857422 15.43511719 19.69964844 15.75585938 20.60742188 C17.32128294 25.20047784 18.413339 29.08045539 18 34 C11.47670114 34.36924333 11.47670114 34.36924333 9.37109375 32.73828125 C7.8902458 30.86085294 7.15222101 29.254795 6.375 27 C6.13523437 26.319375 5.89546875 25.63875 5.6484375 24.9375 C5.09774948 23.29207075 4.54869798 21.64609394 4 20 C1.21522913 18.68951959 -1.43704457 17.89669856 -4.4375 17.1875 C-9.4664334 15.08750583 -10.94679481 9.80297795 -13.03125 5.12890625 C-13.96753591 2.10485378 -14.33733861 0.82847116 -13 -2 C-9.06637059 -3.9668147 -4.00350172 -1.2815742 0 0 Z " fill="#FE8926" transform="translate(625,80)"/>
<path d="M0 0 C0.67792193 0.16173675 1.35584387 0.32347349 2.05430889 0.49011135 C5.45988661 1.07960473 8.67361214 1.14056549 12.13105774 1.15821838 C13.19102243 1.16562535 13.19102243 1.16562535 14.27240056 1.17318195 C16.6338279 1.18850697 18.99522815 1.19690397 21.35668945 1.20532227 C23.0519891 1.21490472 24.74728638 1.22491502 26.44258118 1.23532104 C31.0412968 1.26233635 35.64002265 1.28336418 40.23877358 1.30332303 C45.04609808 1.3252034 49.85339116 1.35258206 54.66069031 1.37937927 C63.7624102 1.42927842 72.86414755 1.47422756 81.96590155 1.51740164 C92.32859803 1.56679775 102.69126299 1.62170708 113.05392897 1.67708123 C134.36925662 1.79085863 155.68461435 1.89770691 177 2 C177 2.33 177 2.66 177 3 C115.29 3 53.58 3 -10 3 C-10 2.67 -10 2.34 -10 2 C-6.7 1.67 -3.4 1.34 0 1 C0 0.67 0 0.34 0 0 Z " fill="#FB923E" transform="translate(687,119)"/>
<path d="M0 0 C0.71633102 0.06376831 1.43266205 0.12753662 2.17070007 0.1932373 C3.16070007 1.6782373 3.16070007 1.6782373 4.17070007 3.1932373 C1.53070007 3.1932373 -1.10929993 3.1932373 -3.82929993 3.1932373 C-3.82929993 5.8332373 -3.82929993 8.4732373 -3.82929993 11.1932373 C-4.48929993 11.1932373 -5.14929993 11.1932373 -5.82929993 11.1932373 C-5.82929993 8.5532373 -5.82929993 5.9132373 -5.82929993 3.1932373 C-7.07837883 3.19989914 -7.07837883 3.19989914 -8.35269165 3.20669556 C-16.19544933 3.24674869 -24.03817271 3.27720969 -31.8810091 3.29686165 C-35.91321483 3.30730451 -39.94533614 3.32147281 -43.97749329 3.34411621 C-47.86782856 3.36582677 -51.75808257 3.37780215 -55.64847374 3.38299179 C-57.13365649 3.38669077 -58.61883472 3.39391385 -60.10398293 3.40469742 C-62.1821979 3.41918879 -64.26007587 3.42121627 -66.33833313 3.42028809 C-67.5219191 3.42472931 -68.70550507 3.42917053 -69.92495728 3.43374634 C-72.82929993 3.1932373 -72.82929993 3.1932373 -75.82929993 1.1932373 C-66.39764103 1.06244866 -56.96597709 0.93203116 -47.53430653 0.80208588 C-43.15468915 0.74173386 -38.77507361 0.68125459 -34.39546204 0.6204834 C-30.16796969 0.5618277 -25.94047282 0.50350772 -21.71297264 0.44541931 C-20.10106428 0.42321194 -18.48915757 0.40088413 -16.87725258 0.37843323 C-14.61753892 0.34698022 -12.35781972 0.31595755 -10.09809875 0.28503418 C-8.81236465 0.26726929 -7.52663055 0.24950439 -6.20193481 0.23120117 C-4.13331827 0.20791591 -2.06393936 0.14096423 0 0 Z " fill="#FD9335" transform="translate(181.8292999267578,118.8067626953125)"/>
<path d="M0 0 C0.99 0.33 1.98 0.66 3 1 C5.22818773 7.33274406 5.22034369 13.34072392 5 20 C3.125 21.0625 3.125 21.0625 1 22 C-1 21 -1 21 -2 18 C-2.66 17.34 -3.32 16.68 -4 16 C-4.265625 13.46875 -4.265625 13.46875 -4.25 10.5 C-4.25515625 9.5203125 -4.2603125 8.540625 -4.265625 7.53125 C-4 5 -4 5 -2 3 C-2 3.66 -2 4.32 -2 5 C-1.34 4.34 -0.68 3.68 0 3 C0 2.01 0 1.02 0 0 Z " fill="#FD5C00" transform="translate(607,154)"/>
<path d="M0 0 C0 0.66 0 1.32 0 2 C1.98 2 3.96 2 6 2 C6 2.33 6 2.66 6 3 C1.05 3.33 -3.9 3.66 -9 4 C-8.98839844 5.51722656 -8.97679687 7.03445312 -8.96484375 8.59765625 C-8.87601451 26.08868808 -9.34065186 43.5237672 -10 61 C-10.33 61 -10.66 61 -11 61 C-11.06949335 53.48962286 -11.12280778 45.97927904 -11.15543652 38.46865368 C-11.17109635 34.98118424 -11.1923398 31.49393468 -11.22631836 28.0065918 C-11.2651328 23.99786257 -11.2797065 19.98936452 -11.29296875 15.98046875 C-11.30845261 14.72727341 -11.32393646 13.47407806 -11.33988953 12.1829071 C-11.34011612 11.02193008 -11.34034271 9.86095306 -11.34057617 8.66479492 C-11.34723801 7.64109299 -11.35389984 6.61739105 -11.36076355 5.56266785 C-11 3 -11 3 -9.60639954 1.16426086 C-6.6561012 -0.97400973 -3.5233192 -0.17327799 0 0 Z " fill="#FE890C" transform="translate(437,141)"/>
<path d="M0 0 C0.33 0 0.66 0 1 0 C2.60484829 5.64195799 3.2786615 10.5892461 3.1953125 16.4375 C3.1924826 17.20304199 3.18965271 17.96858398 3.18673706 18.75732422 C3.17565648 21.17171724 3.15057601 23.58572154 3.125 26 C3.11495448 27.64973418 3.1058314 29.29947424 3.09765625 30.94921875 C3.07575712 34.96629268 3.04131325 38.98308073 3 43 C2.01 43 1.02 43 0 43 C0 28.81 0 14.62 0 0 Z " fill="#FD9643" transform="translate(863,163)"/>
<path d="M0 0 C0.66 0 1.32 0 2 0 C2.97815251 12.3491755 3.11739981 24.61702895 3 37 C2.01 37 1.02 37 0 37 C0 24.79 0 12.58 0 0 Z " fill="#FE8D34" transform="translate(334,158)"/>
<path d="M0 0 C0.33 0 0.66 0 1 0 C1.69836262 13.16487829 2.13723059 26.26979648 1.875 39.45507812 C1.86339844 40.41478516 1.85179687 41.37449219 1.83984375 42.36328125 C1.82300537 43.21188721 1.80616699 44.06049316 1.78881836 44.93481445 C1.80330115 47.22430538 1.80330115 47.22430538 4 49 C3.01 49.495 3.01 49.495 2 50 C1.01 49.67 0.02 49.34 -1 49 C-1.07288673 38.0092882 -0.85057756 27.04687147 -0.5 16.0625 C-0.45161299 14.492845 -0.4034349 12.92318354 -0.35546875 11.35351562 C-0.23937551 7.56893204 -0.12049722 3.78444582 0 0 Z " fill="#FD8D32" transform="translate(724,154)"/>
<path d="M0 0 C0.66 0.33 1.32 0.66 2 1 C1.50628906 1.51949219 1.01257813 2.03898438 0.50390625 2.57421875 C-0.13675781 3.27160156 -0.77742188 3.96898437 -1.4375 4.6875 C-2.07558594 5.37199219 -2.71367187 6.05648437 -3.37109375 6.76171875 C-5.18638109 9.25610639 -5.57517756 10.97741276 -6 14 C-6.33 14.99 -6.66 15.98 -7 17 C-7.0960133 19.45681101 -7.12983042 21.91631833 -7.125 24.375 C-7.12757813 25.68210938 -7.13015625 26.98921875 -7.1328125 28.3359375 C-7.0224678 31.38015313 -6.71706674 34.05205898 -6 37 C-6.66 37 -7.32 37 -8 37 C-11.07793103 29.1943669 -11.40695108 19.47591754 -9.3125 11.32421875 C-7.15932776 6.70386998 -3.73745731 3.39768846 0 0 Z " fill="#FE9E2B" transform="translate(507,146)"/>
<path d="M0 0 C2.97 0.33 5.94 0.66 9 1 C9.33 2.98 9.66 4.96 10 7 C8.35 7 6.7 7 5 7 C4.67 7.66 4.34 8.32 4 9 C0.06153846 5.67692308 0.06153846 5.67692308 -0.25 2.25 C-0.1675 1.5075 -0.085 0.765 0 0 Z " fill="#FE5E02" transform="translate(267,187)"/>
<path d="M0 0 C1.64574566 -0.02688151 3.29161413 -0.04634123 4.9375 -0.0625 C5.85402344 -0.07410156 6.77054687 -0.08570313 7.71484375 -0.09765625 C10 0 10 0 11 1 C11.08669432 2.4887186 11.10703494 3.981445 11.09765625 5.47265625 C11.09443359 6.37177734 11.09121094 7.27089844 11.08789062 8.19726562 C11.07951172 9.14279297 11.07113281 10.08832031 11.0625 11.0625 C11.05798828 12.01189453 11.05347656 12.96128906 11.04882812 13.93945312 C11.0370011 16.29303065 11.02052025 18.64648477 11 21 C10.67 20.01 10.34 19.02 10 18 C9.34 18 8.68 18 8 18 C8 12.72 8 7.44 8 2 C5.36 1.67 2.72 1.34 0 1 C0 0.67 0 0.34 0 0 Z " fill="#FD8F3A" transform="translate(105,130)"/>
<path d="M0 0 C0.495 0.99 0.495 0.99 1 2 C-0.2065625 2.1546875 -0.2065625 2.1546875 -1.4375 2.3125 C-4.24066932 2.8534625 -6.43171129 3.50495999 -9.0625 4.5 C-19.67491335 8.10254165 -30.166319 6.96533044 -41 5 C-41 4.67 -41 4.34 -41 4 C-40.23856689 4.01047363 -39.47713379 4.02094727 -38.69262695 4.03173828 C-35.2326184 4.07339019 -31.77266269 4.0993556 -28.3125 4.125 C-26.51522461 4.15013672 -26.51522461 4.15013672 -24.68164062 4.17578125 C-23.52470703 4.18222656 -22.36777344 4.18867188 -21.17578125 4.1953125 C-20.11270752 4.20578613 -19.04963379 4.21625977 -17.9543457 4.22705078 C-11.10804061 3.70089065 -7.10003612 -0.26792589 0 0 Z " fill="#FFAA29" transform="translate(851,201)"/>
<path d="M0 0 C1.21429687 -0.00257813 2.42859375 -0.00515625 3.6796875 -0.0078125 C6.63619095 0.10615702 9.25691815 0.43796899 12.125 1.125 C11.795 1.785 11.465 2.445 11.125 3.125 C8.00007749 3.18291844 4.87529234 3.21856746 1.75 3.25 C0.86054687 3.26675781 -0.02890625 3.28351563 -0.9453125 3.30078125 C-1.79609375 3.30722656 -2.646875 3.31367188 -3.5234375 3.3203125 C-4.70172119 3.33602295 -4.70172119 3.33602295 -5.90380859 3.35205078 C-7.875 3.125 -7.875 3.125 -9.875 1.125 C-6.40672305 -0.03109232 -3.6534416 -0.00772398 0 0 Z " fill="#FEA321" transform="translate(837.875,137.875)"/>
<path d="M0 0 C2.93359375 -0.43359375 2.93359375 -0.43359375 6.4375 -0.4375 C8.16806641 -0.46650391 8.16806641 -0.46650391 9.93359375 -0.49609375 C13 0 13 0 14.91015625 2.02734375 C15.26980469 2.67832031 15.62945313 3.32929688 16 4 C15.34 5.32 14.68 6.64 14 8 C14 6.35 14 4.7 14 3 C8.72 3 3.44 3 -2 3 C-1.34 2.01 -0.68 1.02 0 0 Z " fill="#FE8E11" transform="translate(624,138)"/>
<path d="M0 0 C-0.33 0.66 -0.66 1.32 -1 2 C-3.90625 2.37890625 -3.90625 2.37890625 -7.5 2.5625 C-11.56998767 2.41799469 -11.56998767 2.41799469 -15 4 C-17.67058851 4.14115161 -20.32432238 4.04247107 -23 4 C-23 3.34 -23 2.68 -23 2 C-15.2472493 0.48462814 -7.89957062 -0.27990605 0 0 Z " fill="#FE8C1C" transform="translate(391,138)"/>
<path d="M0 0 C0.66 0.66 1.32 1.32 2 2 C1.73070511 4.00962468 1.38331373 6.00897471 1 8 C0.85663053 10.52678028 0.75442963 13.0560846 0.68359375 15.5859375 C0.66281265 16.28772125 0.64203156 16.989505 0.62062073 17.71255493 C0.55573676 19.93327958 0.4965277 22.15411276 0.4375 24.375 C0.39425646 25.88933371 0.3506404 27.40365683 0.30664062 28.91796875 C0.20011914 32.61186655 0.09868323 36.30588354 0 40 C-0.33 40 -0.66 40 -1 40 C-1.02474322 34.94629268 -1.04288053 29.89262074 -1.05493164 24.83886719 C-1.0599563 23.12011094 -1.0667771 21.40135895 -1.07543945 19.68261719 C-1.0875868 17.21027574 -1.09324703 14.73799088 -1.09765625 12.265625 C-1.10281754 11.49881409 -1.10797882 10.73200317 -1.11329651 9.94195557 C-1.11366245 6.45150385 -0.93752738 3.35725527 0 0 Z " fill="#FD8D37" transform="translate(739,168)"/>
<path d="M0 0 C2 1.25 2 1.25 4 3 C4 4.32 4 5.64 4 7 C-0.60853797 6.27991594 -4.67237409 4.68704061 -9 3 C-8.67 2.34 -8.34 1.68 -8 1 C-5.36 1.33 -2.72 1.66 0 2 C0 1.34 0 0.68 0 0 Z " fill="#FE941E" transform="translate(535,203)"/>
<path d="M0 0 C3.66161578 1.22053859 4.16270474 2.36782304 6.1875 5.5625 C6.71730469 6.38878906 7.24710938 7.21507812 7.79296875 8.06640625 C8.19128906 8.70449219 8.58960938 9.34257812 9 10 C8.01 10.495 8.01 10.495 7 11 C6.34 10.67 5.68 10.34 5 10 C4.67 10.66 4.34 11.32 4 12 C3.01 12.495 3.01 12.495 2 13 C2.04125 11.783125 2.0825 10.56625 2.125 9.3125 C2.13754508 5.78105873 1.59998217 3.19996434 0 0 Z " fill="#FE8714" transform="translate(246,146)"/>
<path d="M0 0 C0.99 0.33 1.98 0.66 3 1 C3.33 3.97 3.66 6.94 4 10 C3.34 9.34 2.68 8.68 2 8 C0.68 8 -0.64 8 -2 8 C-2.33 8.66 -2.66 9.32 -3 10 C-3.625 7.625 -3.625 7.625 -4 5 C-3.34 4.34 -2.68 3.68 -2 3 C-2 3.66 -2 4.32 -2 5 C-1.34 4.34 -0.68 3.68 0 3 C0 2.01 0 1.02 0 0 Z " fill="#FD770D" transform="translate(607,154)"/>
<path d="M0 0 C3.77821153 1.37185061 6.4455914 2.85802763 9 6 C10.21029002 11.5440433 9.5050971 17.40028151 9 23 C8.67 23 8.34 23 8 23 C8 17.72 8 12.44 8 7 C6.68 7 5.36 7 4 7 C4 6.01 4 5.02 4 4 C2.35 3.67 0.7 3.34 -1 3 C-0.67 2.01 -0.34 1.02 0 0 Z " fill="#FE922B" transform="translate(669,97)"/>
<path d="M0 0 C2.31 0 4.62 0 7 0 C7 5.61 7 11.22 7 17 C6.67 17 6.34 17 6 17 C5.855625 15.865625 5.71125 14.73125 5.5625 13.5625 C5.38828522 10.19222799 5.38828522 10.19222799 4 9 C3.95907063 6.66702567 3.95758277 4.33294775 4 2 C2.68 1.34 1.36 0.68 0 0 Z " fill="#FD8E3D" transform="translate(801,130)"/>
<path d="M0 0 C1.47968324 0.14049518 2.95874516 0.28754826 4.4375 0.4375 C5.67306641 0.55931641 5.67306641 0.55931641 6.93359375 0.68359375 C9 1 9 1 10 2 C11.34015221 2.15582303 12.68758903 2.25044142 14.03515625 2.31640625 C14.84404297 2.35830078 15.65292969 2.40019531 16.48632812 2.44335938 C17.33646484 2.48267578 18.18660156 2.52199219 19.0625 2.5625 C19.91650391 2.60568359 20.77050781 2.64886719 21.65039062 2.69335938 C23.76672037 2.79976702 25.88333813 2.90041731 28 3 C28 3.33 28 3.66 28 4 C24.64600151 4.0878954 21.2923036 4.14068879 17.9375 4.1875 C16.99455078 4.21263672 16.05160156 4.23777344 15.08007812 4.26367188 C9.23357264 4.32478517 5.18712456 3.74104641 0 1 C0 0.67 0 0.34 0 0 Z " fill="#FEA120" transform="translate(114,203)"/>
<path d="M0 0 C0.66 0.33 1.32 0.66 2 1 C-1.13725286 4.31652445 -4.08681731 6.69222559 -8 9 C-9.36984198 10.29579647 -10.7151049 11.61992749 -12 13 C-12.66 12.67 -13.32 12.34 -14 12 C-10.41205364 6.61808045 -5.30032988 3.50995127 0 0 Z " fill="#FE991E" transform="translate(283,164)"/>
<path d="M0 0 C0.33 0.66 0.66 1.32 1 2 C0.11957031 1.97679687 -0.76085937 1.95359375 -1.66796875 1.9296875 C-2.82941406 1.91164062 -3.99085938 1.89359375 -5.1875 1.875 C-6.33605469 1.85179687 -7.48460937 1.82859375 -8.66796875 1.8046875 C-12.68477859 2.04013943 -15.45642451 3.22821225 -19 5 C-18.67 3.35 -18.34 1.7 -18 0 C-11.97696588 -1.20460682 -6.04707779 -1.20313831 0 0 Z " fill="#FEA210" transform="translate(741,142)"/>
<path d="M0 0 C2 2 2 2 2.23046875 4.53125 C2.20919922 6.00078125 2.20919922 6.00078125 2.1875 7.5 C2.18105469 8.4796875 2.17460937 9.459375 2.16796875 10.46875 C2 13 2 13 1 15 C-0.65 14.67 -2.3 14.34 -4 14 C-2.68 13.67 -1.36 13.34 0 13 C-0.08378906 12.22914063 -0.16757812 11.45828125 -0.25390625 10.6640625 C-0.35574219 9.66117188 -0.45757812 8.65828125 -0.5625 7.625 C-0.66691406 6.62726563 -0.77132813 5.62953125 -0.87890625 4.6015625 C-1 2 -1 2 0 0 Z " fill="#FE8D1F" transform="translate(335,193)"/>
<path d="M0 0 C0 1.32 0 2.64 0 4 C2.31 4.66 4.62 5.32 7 6 C5.3125 6.6875 5.3125 6.6875 3 7 C2.21625 6.525625 1.4325 6.05125 0.625 5.5625 C-2.49034205 3.70812973 -4.43728304 3.75143835 -8 4 C-6.07740436 0.15480872 -4.12054651 0 0 0 Z " fill="#FE982A" transform="translate(400,199)"/>
<path d="M0 0 C2.31 0 4.62 0 7 0 C7.33 1.32 7.66 2.64 8 4 C5.36 4.33 2.72 4.66 0 5 C-0.33 4.01 -0.66 3.02 -1 2 C-0.67 1.34 -0.34 0.68 0 0 Z " fill="#FE6200" transform="translate(344,189)"/>
<path d="M0 0 C0.99 0.33 1.98 0.66 3 1 C3 3.31 3 5.62 3 8 C1.125 9.0625 1.125 9.0625 -1 10 C-1.66 9.67 -2.32 9.34 -3 9 C-2.67 8.34 -2.34 7.68 -2 7 C-1.34 7.33 -0.68 7.66 0 8 C0 5.36 0 2.72 0 0 Z " fill="#FD730F" transform="translate(609,166)"/>
<path d="M0 0 C1.32 1.65 2.64 3.3 4 5 C3.67 5.66 3.34 6.32 3 7 C0.67843403 7.40729228 -1.6568787 7.74438677 -4 8 C-4.33 7.34 -4.66 6.68 -5 6 C-4.01 5.67 -3.02 5.34 -2 5 C-0.78130071 2.49552484 -0.78130071 2.49552484 0 0 Z " fill="#FD6F08" transform="translate(109,188)"/>
<path d="M0 0 C0 0.66 0 1.32 0 2 C1.98 2 3.96 2 6 2 C6 2.33 6 2.66 6 3 C1.05 3 -3.9 3 -9 3 C-9.33 2.34 -9.66 1.68 -10 1 C-6.78548731 -0.60725635 -3.56387464 -0.05748185 0 0 Z " fill="#FD670A" transform="translate(437,141)"/>
<path d="M0 0 C-1.35617781 4.06853343 -3.60247226 5.46850875 -7 8 C-9.19921875 8.6484375 -9.19921875 8.6484375 -11 9 C-10.06725891 7.87105124 -9.12859878 6.74699124 -8.1875 5.625 C-7.66542969 4.99851563 -7.14335938 4.37203125 -6.60546875 3.7265625 C-4.60437547 1.57453518 -3.0502442 0 0 0 Z " fill="#FD9034" transform="translate(603,173)"/>
<path d="M0 0 C1.4540625 0.0309375 1.4540625 0.0309375 2.9375 0.0625 C0.9575 1.0525 0.9575 1.0525 -1.0625 2.0625 C-1.0625 4.7025 -1.0625 7.3425 -1.0625 10.0625 C-1.7225 10.0625 -2.3825 10.0625 -3.0625 10.0625 C-3.25662181 8.58418779 -3.44262131 7.10480684 -3.625 5.625 C-3.72941406 4.80128906 -3.83382813 3.97757813 -3.94140625 3.12890625 C-3.98136719 2.44699219 -4.02132813 1.76507813 -4.0625 1.0625 C-3.0625 0.0625 -3.0625 0.0625 0 0 Z " fill="#FD8C30" transform="translate(292.0625,129.9375)"/>
<path d="M0 0 C2.475 0.99 2.475 0.99 5 2 C4.34 2.66 3.68 3.32 3 4 C2.67 3.67 2.34 3.34 2 3 C1.34 4.65 0.68 6.3 0 8 C-0.99 8 -1.98 8 -3 8 C-3.33 6.02 -3.66 4.04 -4 2 C-3.01 3.485 -3.01 3.485 -2 5 C-1.34 3.35 -0.68 1.7 0 0 Z " fill="#FE8315" transform="translate(107,186)"/>
<path d="M0 0 C-3.41211416 2.27474277 -5.6568529 2.56629644 -9.6875 3.125 C-10.86699219 3.29257813 -12.04648437 3.46015625 -13.26171875 3.6328125 C-14.16535156 3.75398437 -15.06898438 3.87515625 -16 4 C-11.95384951 -0.04615049 -5.4704121 -1.94111397 0 0 Z " fill="#FEA024" transform="translate(305,172)"/>
<path d="M0 0 C1.21236328 0.01353516 1.21236328 0.01353516 2.44921875 0.02734375 C3.37154297 0.04474609 3.37154297 0.04474609 4.3125 0.0625 C3.9825 0.7225 3.6525 1.3825 3.3125 2.0625 C1.02734375 2.4765625 1.02734375 2.4765625 -1.75 2.6875 C-3.12865234 2.79964844 -3.12865234 2.79964844 -4.53515625 2.9140625 C-5.24542969 2.96304688 -5.95570313 3.01203125 -6.6875 3.0625 C-7.0175 2.4025 -7.3475 1.7425 -7.6875 1.0625 C-4.80538698 0.10179566 -2.98899956 -0.04331883 0 0 Z " fill="#FE9936" transform="translate(231.6875,146.9375)"/>
<path d="M0 0 C3.3 0 6.6 0 10 0 C4 4 4 4 0 4 C0 2.68 0 1.36 0 0 Z " fill="#FD8B35" transform="translate(442,145)"/>
<path d="M0 0 C1.65 0 3.3 0 5 0 C5.33 0.99 5.66 1.98 6 3 C7.65 3 9.3 3 11 3 C10.34 3.66 9.68 4.32 9 5 C6.6171875 4.7578125 6.6171875 4.7578125 3.875 4.125 C2.96492187 3.92132813 2.05484375 3.71765625 1.1171875 3.5078125 C0.41851563 3.34023437 -0.28015625 3.17265625 -1 3 C-0.67 2.01 -0.34 1.02 0 0 Z " fill="#FE9D36" transform="translate(763,143)"/>
<path d="M0 0 C2.97 0 5.94 0 9 0 C8.67 0.99 8.34 1.98 8 3 C2.25 3.125 2.25 3.125 0 2 C0 1.34 0 0.68 0 0 Z " fill="#FEA920" transform="translate(281,195)"/>
<path d="M0 0 C0.66 0.66 1.32 1.32 2 2 C1.9765625 4.6015625 1.9765625 4.6015625 1.625 7.625 C1.51414062 8.62789062 1.40328125 9.63078125 1.2890625 10.6640625 C1.19367187 11.43492187 1.09828125 12.20578125 1 13 C-2.225 6.765 -2.225 6.765 -1.0625 2.8125 C-0.711875 1.884375 -0.36125 0.95625 0 0 Z " fill="#FEAF2D" transform="translate(796,180)"/>
<path d="M0 0 C0.99 0.33 1.98 0.66 3 1 C2.34 3.97 1.68 6.94 1 10 C0.01 9.34 -0.98 8.68 -2 8 C-1.125 2.25 -1.125 2.25 0 0 Z " fill="#FD6A04" transform="translate(605,162)"/>
<path d="M0 0 C0.33 0.66 0.66 1.32 1 2 C0.13375 2.12375 -0.7325 2.2475 -1.625 2.375 C-4.89513853 2.98058121 -7.87256899 3.88306035 -11 5 C-10.6875 3.0625 -10.6875 3.0625 -10 1 C-6.52674819 -0.1577506 -3.63932552 -0.06866652 0 0 Z " fill="#FE9B26" transform="translate(851,201)"/>
<path d="M0 0 C-1 3 -1 3 -3 4 C-4.99960012 4.039992 -7.00047242 4.04346799 -9 4 C-6.77642026 0.66463039 -4.04815944 -2.02407972 0 0 Z " fill="#FE9136" transform="translate(690,198)"/>
<path d="M0 0 C0.33 1.32 0.66 2.64 1 4 C1.61875 4.12375 2.2375 4.2475 2.875 4.375 C5 5 5 5 7 7 C2.48279689 7.36625971 2.48279689 7.36625971 0.1875 5.625 C-1 4 -1 4 -1 2 C-1.66 1.67 -2.32 1.34 -3 1 C-2.01 0.67 -1.02 0.34 0 0 Z " fill="#FEA220" transform="translate(108,195)"/>
<path d="M0 0 C0.33 0.66 0.66 1.32 1 2 C-1.25 4.0625 -1.25 4.0625 -4 6 C-6.3125 5.75 -6.3125 5.75 -8 5 C-8 4.34 -8 3.68 -8 3 C-5.36 2.01 -2.72 1.02 0 0 Z " fill="#FEA01F" transform="translate(750,141)"/>
<path d="M0 0 C0.66 0 1.32 0 2 0 C1.71125 0.70125 1.4225 1.4025 1.125 2.125 C-0.02133588 5.05452503 -1.02625654 8.00921653 -2 11 C-2.66 11 -3.32 11 -4 11 C-3.39301257 6.87248551 -1.96189209 3.6678852 0 0 Z " fill="#FE9E29" transform="translate(546,154)"/>
<path d="M0 0 C0.66 0.33 1.32 0.66 2 1 C1.67 1.99 1.34 2.98 1 4 C-1.3125 5.0625 -1.3125 5.0625 -4 6 C-5.34050052 6.65213539 -6.67661368 7.31379969 -8 8 C-5.58443874 4.80800833 -3.31996462 2.25283313 0 0 Z " fill="#FEA929" transform="translate(808,166)"/>
<path d="M0 0 C0.33 0.66 0.66 1.32 1 2 C1.99 2.33 2.98 2.66 4 3 C1.35261084 4.4606285 0.10551666 5 -3 5 C-3 3.68 -3 2.36 -3 1 C-2.01 0.67 -1.02 0.34 0 0 Z " fill="#FD8C35" transform="translate(741,144)"/>
<path d="M0 0 C1.65 0 3.3 0 5 0 C5 0.99 5 1.98 5 3 C2.36 3.33 -0.28 3.66 -3 4 C-2.34 3.67 -1.68 3.34 -1 3 C-0.67 2.01 -0.34 1.02 0 0 Z " fill="#FE9B3A" transform="translate(467,143)"/>
<path d="M0 0 C1.23556641 0.01740234 1.23556641 0.01740234 2.49609375 0.03515625 C3.32238281 0.04417969 4.14867187 0.05320313 5 0.0625 C5.63808594 0.07410156 6.27617188 0.08570313 6.93359375 0.09765625 C6.93359375 0.42765625 6.93359375 0.75765625 6.93359375 1.09765625 C4.62359375 1.09765625 2.31359375 1.09765625 -0.06640625 1.09765625 C-0.06640625 1.75765625 -0.06640625 2.41765625 -0.06640625 3.09765625 C-0.72640625 3.09765625 -1.38640625 3.09765625 -2.06640625 3.09765625 C-2.06640625 4.74765625 -2.06640625 6.39765625 -2.06640625 8.09765625 C-2.39640625 8.09765625 -2.72640625 8.09765625 -3.06640625 8.09765625 C-3.10882348 5.7647085 -3.10733562 3.43063058 -3.06640625 1.09765625 C-2.06640625 0.09765625 -2.06640625 0.09765625 0 0 Z " fill="#FC8B36" transform="translate(820.06640625,129.90234375)"/>
<path d="M0 0 C0.66 0.33 1.32 0.66 2 1 C0.63016497 4.16115776 0.0109362 4.9927092 -3 7 C-3.33 6.01 -3.66 5.02 -4 4 C-2.68 2.68 -1.36 1.36 0 0 Z " fill="#FEAA28" transform="translate(703,196)"/>
<path d="M0 0 C1.32 0 2.64 0 4 0 C5.0625 2.375 5.0625 2.375 6 5 C5.67 5.66 5.34 6.32 5 7 C4.67 6.01 4.34 5.02 4 4 C3.01 3.67 2.02 3.34 1 3 C0.67 2.01 0.34 1.02 0 0 Z " fill="#FEAD22" transform="translate(501,185)"/>
<path d="M0 0 C0.66 0 1.32 0 2 0 C2 2.31 2 4.62 2 7 C1.01 7 0.02 7 -1 7 C-2 4 -2 4 -1.0625 1.8125 C-0.5365625 0.9153125 -0.5365625 0.9153125 0 0 Z " fill="#FD9535" transform="translate(98,123)"/>
<path d="M0 0 C0.99 0 1.98 0 3 0 C3.66 1.65 4.32 3.3 5 5 C3.35 4.67 1.7 4.34 0 4 C0 2.68 0 1.36 0 0 Z " fill="#FE9C30" transform="translate(227,198)"/>
<path d="M0 0 C0.66 0.33 1.32 0.66 2 1 C0.98590222 3.53524446 0.38502734 4.77139002 -2 6.1875 C-2.66 6.455625 -3.32 6.72375 -4 7 C-4.99 7.495 -4.99 7.495 -6 8 C-4.55746343 4.63408134 -2.66735273 2.48952921 0 0 Z " fill="#FE9D1F" transform="translate(235,189)"/>
<path d="M0 0 C0 3.13751221 -0.35179805 4.39757586 -2 7 C-2.99 7.33 -3.98 7.66 -5 8 C-5.66 7.34 -6.32 6.68 -7 6 C-4.69 4.02 -2.38 2.04 0 0 Z " fill="#FE9A23" transform="translate(319,182)"/>
<path d="M0 0 C0.33 0 0.66 0 1 0 C1.20140476 3.62528568 0.85776765 5.86501708 -1 9 C-1.99 9 -2.98 9 -4 9 C-2.80100302 5.9168649 -1.52299523 2.93720508 0 0 Z " fill="#FE912C" transform="translate(242,178)"/>
<path d="M0 0 C3.3 0 6.6 0 10 0 C10 0.99 10 1.98 10 3 C6.7 2.34 3.4 1.68 0 1 C0 0.67 0 0.34 0 0 Z " fill="#FD8E37" transform="translate(840,162)"/>
<path d="M0 0 C0.99 0.33 1.98 0.66 3 1 C1.71937515 2.7074998 0.38232443 4.37373596 -1 6 C-1.66 6 -2.32 6 -3 6 C-2.625 3.5625 -2.625 3.5625 -2 1 C-1.34 0.67 -0.68 0.34 0 0 Z " fill="#FD8A35" transform="translate(204,148)"/>
<path d="M0 0 C0.66 0 1.32 0 2 0 C3.06671952 3.20015856 2.94845472 4.88544294 2.5625 8.1875 C2.46066406 9.08855469 2.35882813 9.98960937 2.25390625 10.91796875 C2.17011719 11.60503906 2.08632812 12.29210937 2 13 C1.67 13 1.34 13 1 13 C0.67 8.71 0.34 4.42 0 0 Z " fill="#FEB50B" transform="translate(201,133)"/>
<path d="M0 0 C0.33 0 0.66 0 1 0 C1.06058594 0.61488281 1.12117187 1.22976562 1.18359375 1.86328125 C1.26738281 2.67152344 1.35117188 3.47976562 1.4375 4.3125 C1.51871094 5.11300781 1.59992188 5.91351563 1.68359375 6.73828125 C1.95265693 9.16087179 1.95265693 9.16087179 3 12 C2.01 12.33 1.02 12.66 0 13 C0 8.71 0 4.42 0 0 Z " fill="#FD7E12" transform="translate(201,137)"/>
<path d="M0 0 C2.31 0.33 4.62 0.66 7 1 C7.33 2.32 7.66 3.64 8 5 C4.62496331 3.8141763 2.35277269 2.72426311 0 0 Z " fill="#FEA525" transform="translate(510,195)"/>
<path d="M0 0 C0.66 0.33 1.32 0.66 2 1 C-0.97 3.475 -0.97 3.475 -4 6 C-4.33 4.68 -4.66 3.36 -5 2 C-2.625 0.9375 -2.625 0.9375 0 0 Z " fill="#FEA22B" transform="translate(764,160)"/>
<path d="M0 0 C0.33 0.66 0.66 1.32 1 2 C0.06553465 4.03144641 -0.93224776 6.03533587 -2 8 C-2.66 6.68 -3.32 5.36 -4 4 C-2.68 2.68 -1.36 1.36 0 0 Z " fill="#FD8F3B" transform="translate(501,156)"/>
<path d="M0 0 C-0.99 0.33 -1.98 0.66 -3 1 C-3 1.66 -3 2.32 -3 3 C-5.31 2.67 -7.62 2.34 -10 2 C-3.72972973 -1.24324324 -3.72972973 -1.24324324 0 0 Z " fill="#FEA622" transform="translate(564,145)"/>
<path d="M0 0 C2 1 2 1 3 3 C1.02 3.66 -0.96 4.32 -3 5 C-2.625 3.0625 -2.625 3.0625 -2 1 C-1.34 0.67 -0.68 0.34 0 0 Z " fill="#FD902F" transform="translate(512,143)"/>
<path d="M0 0 C0.66 0 1.32 0 2 0 C2.66 1.98 3.32 3.96 4 6 C3.34 6.66 2.68 7.32 2 8 C0.23537317 4.91190305 0 3.76687864 0 0 Z " fill="#FE7A1D" transform="translate(639,104)"/>
</svg>
